<?xml version="1.0" encoding="utf-8"?><svg xml:space="preserve" viewBox="0 0 100 100" y="0" x="0" xmlns="http://www.w3.org/2000/svg" id="圖層_1" version="1.1" width="200px" height="200px" xmlns:xlink="http://www.w3.org/1999/xlink" style="width:100%;height:100%;background-size:initial;background-repeat-y:initial;background-repeat-x:initial;background-position-y:initial;background-position-x:initial;background-origin:initial;background-color:initial;background-clip:initial;background-attachment:initial;animation-play-state:paused" ><g class="ldl-scale" style="transform-origin:50% 50%;transform:rotate(0deg) scale(0.8, 0.8);animation-play-state:paused" ><path fill="#b5b5b5" clip-rule="evenodd" fill-rule="evenodd" d="M83.2 54c.3-1.3.5-2.6.5-4 0-8.4-6.8-15.3-15.3-15.3-.5 0-1 0-1.5.1-3-7.3-10.1-12.4-18.5-12.4-9.8 0-17.9 7-19.6 16.3-5.5 1.3-9.7 6.2-9.8 12.1-6.6.9-11.6 6.5-11.6 13.3 0 7.4 6 13.4 13.4 13.4.6 0 1.2-.1 1.8-.1v.1h57.8c6.6 0 12-5.4 12-12 .1-5.6-3.9-10.3-9.2-11.5z" style="fill:rgb(255, 253, 253);animation-play-state:paused" ></path>
<metadata xmlns:d="https://loading.io/stock/" style="animation-play-state:paused" ><d:name style="animation-play-state:paused" >cloud</d:name>
<d:tags style="animation-play-state:paused" >weather,rain,fog,smoke,cloud,weather</d:tags>
<d:license style="animation-play-state:paused" >by</d:license>
<d:slug style="animation-play-state:paused" >1zeyjo</d:slug></metadata></g><!-- generated by https://loading.io/ --></svg>